<svg width="48" height="48" viewBox="0 0 48 48" fill="none" xmlns="http://www.w3.org/2000/svg">
<circle cx="24" cy="24.0001" r="24" fill="#212529"/>
<g clip-path="url(#clip0_38_23867)">
<path d="M24 12.6751C17.625 12.6751 12.375 17.8501 12.375 24.3001C12.375 29.4001 15.7125 33.7501 20.3625 35.3251C20.9625 35.4376 21.15 35.0626 21.15 34.8001C21.15 34.5376 21.15 33.7876 21.1125 32.7751C17.8875 33.5251 17.2125 31.2001 17.2125 31.2001C16.6875 29.8876 15.9 29.5126 15.9 29.5126C14.85 28.7626 15.9375 28.7626 15.9375 28.7626C17.1 28.8001 17.7375 29.9626 17.7375 29.9626C18.75 31.7626 20.475 31.2376 21.1125 30.9001C21.225 30.1501 21.525 29.6251 21.8625 29.3251C19.3125 29.0626 16.575 28.0501 16.575 23.6251C16.575 22.3501 17.0625 21.3376 17.775 20.5501C17.6625 20.2876 17.25 19.0876 17.8875 17.4751C17.8875 17.4751 18.9 17.1751 21.1125 18.6751C22.05 18.4126 23.025 18.2626 24.0375 18.2626C25.05 18.2626 26.0625 18.3751 26.9625 18.6751C29.175 17.2126 30.15 17.4751 30.15 17.4751C30.7875 19.0501 30.4125 20.2876 30.2625 20.5501C31.0125 21.3376 31.4625 22.3876 31.4625 23.6251C31.4625 28.0501 28.725 29.0626 26.175 29.3251C26.5875 29.7001 26.9625 30.4501 26.9625 31.5001C26.9625 33.0751 26.925 34.3126 26.925 34.6876C26.925 34.9876 27.15 35.3251 27.7125 35.2126C32.2875 33.6751 35.625 29.3626 35.625 24.2251C35.5875 17.8501 30.375 12.6751 24 12.6751Z" fill="white"/>
</g>
<defs>
<clipPath id="clip0_38_23867">
<rect width="24" height="24" fill="white" transform="translate(12 12.0001)"/>
</clipPath>
</defs>
</svg>
