<svg width="48" height="48" viewBox="0 0 48 48" fill="none" xmlns="http://www.w3.org/2000/svg">
<circle cx="24" cy="24.0001" r="24" fill="#2B96F0"/>
<path d="M33.0375 17.7376L34.4625 15.9376C34.875 15.4501 34.9875 15.0751 35.025 14.8876C33.9 15.5626 32.85 15.7876 32.175 15.7876H31.9125L31.7625 15.6376C30.8625 14.8501 29.7375 14.4376 28.5375 14.4376C25.9125 14.4376 23.85 16.6126 23.85 19.1251C23.85 19.2751 23.85 19.5001 23.8875 19.6501L24 20.4001L23.2125 20.3626C18.4125 20.2126 14.475 16.0876 13.8375 15.3751C12.7875 17.2501 13.3875 19.0501 14.025 20.1751L15.3 22.2751L13.275 21.1501C13.3125 22.7251 13.9125 23.9626 15.075 24.8626L16.0875 25.6126L15.075 26.0251C15.7125 27.9376 17.1375 28.7251 18.1875 29.0251L19.575 29.4001L18.2625 30.3001C16.1625 31.8001 13.5375 31.6876 12.375 31.5751C14.7375 33.2251 17.55 33.6001 19.5 33.6001C20.9625 33.6001 22.05 33.4501 22.3125 33.3376C32.8125 30.8626 33.3 21.4876 33.3 19.6126V19.3501L33.525 19.2001C34.8 18.0001 35.325 17.3626 35.625 16.9876C35.5125 17.0251 35.3625 17.1001 35.2125 17.1376L33.0375 17.7376Z" fill="white"/>
</svg>
