<svg width="48" height="48" viewBox="0 0 48 48" fill="none" xmlns="http://www.w3.org/2000/svg">
<circle cx="24" cy="24.0002" r="24" fill="#4DC1FF"/>
<path d="M35.625 18.6002C35.5125 20.8877 33.9375 24.0002 30.8625 27.9377C27.7125 32.0627 25.0125 34.1252 22.8375 34.1252C21.525 34.1252 20.3625 32.9252 19.3875 30.3752C18.75 28.1252 18.1875 25.8002 17.5125 23.4752C16.8375 21.0002 16.0875 19.7252 15.225 19.7252C15.075 19.7252 14.4375 20.1002 13.3875 20.8502L12.375 19.3502C13.5375 18.3377 14.6625 17.3252 15.825 16.2752C17.3625 14.9627 18.45 14.2502 19.275 14.2127C21.075 14.0627 22.1625 15.3377 22.6125 17.9252C23.025 20.7752 23.3625 22.5752 23.55 23.2502C24.075 25.6127 24.675 26.7752 25.2375 26.7752C25.725 26.7752 26.4375 26.0252 27.45 24.4877C28.4625 22.9502 28.9125 21.7502 29.025 20.9627C29.175 19.6502 28.6125 18.9377 27.45 18.9377C26.925 18.9377 26.325 19.0502 25.7625 19.3502C26.8875 15.6002 29.025 13.7627 32.25 13.8377C34.6125 13.9502 35.7375 15.5252 35.625 18.6002Z" fill="white"/>
</svg>
