<svg width="48" height="48" viewBox="0 0 48 48" fill="none" xmlns="http://www.w3.org/2000/svg">
<circle cx="24" cy="24" r="24" fill="#EEF0F2"/>
<g clip-path="url(#clip0_38_23844)">
<path d="M36.0002 24.2661C36.0147 23.4411 35.9278 22.6174 35.7414 21.8128H24.2451V26.2661H30.9933C30.8655 27.0469 30.5778 27.7943 30.1476 28.4634C29.7174 29.1324 29.1536 29.7093 28.49 30.1593L28.4665 30.3085L32.1016 33.0681L32.3533 33.0928C34.6661 30.9994 35.9997 27.9193 35.9997 24.2661" fill="#4285F4"/>
<path d="M24.2449 36C27.5509 36 30.3264 34.9332 32.3539 33.0932L28.4898 30.1597C27.4559 30.8666 26.0681 31.36 24.2449 31.36C22.6965 31.3511 21.1902 30.8646 19.9398 29.9695C18.6894 29.0744 17.7584 27.8161 17.2789 26.3732L17.1354 26.3852L13.3556 29.2518L13.3062 29.3865C14.3241 31.3747 15.8864 33.0463 17.8183 34.2142C19.7502 35.3822 21.9755 36.0005 24.2454 36" fill="#34A853"/>
<path d="M17.2788 26.3733C17.011 25.6094 16.8728 24.8077 16.8697 24C16.8746 23.1936 17.0077 22.393 17.2642 21.6267L17.2574 21.4677L13.4312 18.5549L13.3061 18.6133C12.4473 20.2842 12 22.129 12 23.9999C12 25.8708 12.4473 27.7156 13.3061 29.3865L17.2788 26.3733Z" fill="#FBBC05"/>
<path d="M24.2449 16.64C25.9995 16.6133 27.6964 17.2537 28.9796 18.4267L32.4355 15.12C30.219 13.0822 27.2838 11.9642 24.2449 12C21.975 11.9995 19.7497 12.6177 17.8179 13.7856C15.886 14.9535 14.3237 16.625 13.3057 18.6132L17.2652 21.6267C17.7495 20.1841 18.6836 18.9268 19.9358 18.0321C21.1881 17.1374 22.6953 16.6505 24.2449 16.64Z" fill="#EB4335"/>
</g>
<defs>
<clipPath id="clip0_38_23844">
<rect width="24" height="24" fill="white" transform="translate(12 12)"/>
</clipPath>
</defs>
</svg>
