<svg width="21" height="14" viewBox="0 0 21 14" fill="none" xmlns="http://www.w3.org/2000/svg">
<g clip-path="url(#clip0_22_107)">
<path d="M18.4773 0.605957H1.55545C0.803726 0.605957 0.194336 1.21535 0.194336 1.96707V12.1893C0.194336 12.941 0.803726 13.5504 1.55545 13.5504H18.4773C19.229 13.5504 19.8384 12.941 19.8384 12.1893V1.96707C19.8384 1.21535 19.229 0.605957 18.4773 0.605957Z" fill="white" stroke="#F3F4F6" stroke-width="0.5"/>
<mask id="mask0_22_107" style="mask-type:alpha" maskUnits="userSpaceOnUse" x="-1" y="0" width="22" height="14">
<path d="M18.4773 0.605957H1.55545C0.803726 0.605957 0.194336 1.21535 0.194336 1.96707V12.1893C0.194336 12.941 0.803726 13.5504 1.55545 13.5504H18.4773C19.229 13.5504 19.8384 12.941 19.8384 12.1893V1.96707C19.8384 1.21535 19.229 0.605957 18.4773 0.605957Z" fill="white" stroke="white" stroke-width="0.5"/>
</mask>
<g mask="url(#mask0_22_107)">
<path fill-rule="evenodd" clip-rule="evenodd" d="M0 4.85594H20.033V0.411499H0V4.85594Z" fill="#FFA44A"/>
<path fill-rule="evenodd" clip-rule="evenodd" d="M0 13.7447H20.033V9.30029H0V13.7447Z" fill="#1A9F0B"/>
<path d="M10.0164 8.67075C10.9323 8.67075 11.7065 7.97472 11.7065 7.07819C11.7065 6.18168 10.9323 5.4856 10.0164 5.4856C9.10045 5.4856 8.32617 6.18168 8.32617 7.07819C8.32617 7.97472 9.10045 8.67075 10.0164 8.67075Z" fill="#181A93" fill-opacity="0.15" stroke="#181A93" stroke-width="0.666667"/>
<path fill-rule="evenodd" clip-rule="evenodd" d="M10.0166 7.52262C10.28 7.52262 10.4935 7.32363 10.4935 7.07817C10.4935 6.83271 10.28 6.63373 10.0166 6.63373C9.75313 6.63373 9.53955 6.83271 9.53955 7.07817C9.53955 7.32363 9.75313 7.52262 10.0166 7.52262Z" fill="#181A93"/>
</g>
</g>
<defs>
<clipPath id="clip0_22_107">
<rect width="20.2222" height="14" fill="white"/>
</clipPath>
</defs>
</svg>
