<svg width="21" height="14" viewBox="0 0 21 14" fill="none" xmlns="http://www.w3.org/2000/svg">
<g clip-path="url(#clip0_22_71)">
<path d="M18.4738 0.60614H1.55545C0.803726 0.60614 0.194336 1.21553 0.194336 1.96725V12.1895C0.194336 12.9412 0.803726 13.5506 1.55545 13.5506H18.4738C19.2255 13.5506 19.8349 12.9412 19.8349 12.1895V1.96725C19.8349 1.21553 19.2255 0.60614 18.4738 0.60614Z" fill="white" stroke="#F3F4F6" stroke-width="0.5"/>
<mask id="mask0_22_71" style="mask-type:alpha" maskUnits="userSpaceOnUse" x="-1" y="0" width="22" height="14">
<path d="M18.4738 0.60614H1.55545C0.803726 0.60614 0.194336 1.21553 0.194336 1.96725V12.1895C0.194336 12.9412 0.803726 13.5506 1.55545 13.5506H18.4738C19.2255 13.5506 19.8349 12.9412 19.8349 12.1895V1.96725C19.8349 1.21553 19.2255 0.60614 18.4738 0.60614Z" fill="white" stroke="white" stroke-width="0.5"/>
</mask>
<g mask="url(#mask0_22_71)">
<path d="M20.0293 0.411682H13.3528V13.7451H20.0293V0.411682Z" fill="#E43D4C"/>
<path fill-rule="evenodd" clip-rule="evenodd" d="M0 13.7451H6.67651V0.411682H0V13.7451Z" fill="#1BB65D"/>
</g>
</g>
<defs>
<clipPath id="clip0_22_71">
<rect width="20.2222" height="14" fill="white"/>
</clipPath>
</defs>
</svg>
