<svg width="21" height="14" viewBox="0 0 21 14" fill="none" xmlns="http://www.w3.org/2000/svg">
<g clip-path="url(#clip0_22_42)">
<path d="M18.4773 0.605957H1.55545C0.803726 0.605957 0.194336 1.21535 0.194336 1.96707V12.1893C0.194336 12.941 0.803726 13.5504 1.55545 13.5504H18.4773C19.229 13.5504 19.8384 12.941 19.8384 12.1893V1.96707C19.8384 1.21535 19.229 0.605957 18.4773 0.605957Z" fill="white" stroke="#F3F4F6" stroke-width="0.5"/>
<mask id="mask0_22_42" style="mask-type:alpha" maskUnits="userSpaceOnUse" x="-1" y="0" width="22" height="14">
<path d="M18.4773 0.605957H1.55545C0.803726 0.605957 0.194336 1.21535 0.194336 1.96707V12.1893C0.194336 12.941 0.803726 13.5504 1.55545 13.5504H18.4773C19.229 13.5504 19.8384 12.941 19.8384 12.1893V1.96707C19.8384 1.21535 19.229 0.605957 18.4773 0.605957Z" fill="white" stroke="white" stroke-width="0.5"/>
</mask>
<g mask="url(#mask0_22_42)">
<path d="M20.0328 0.411499H14.3091V13.7449H20.0328V0.411499Z" fill="#FF3131"/>
<path fill-rule="evenodd" clip-rule="evenodd" d="M0 13.7448H5.72372V0.411499H0V13.7448Z" fill="#FF3131"/>
<path fill-rule="evenodd" clip-rule="evenodd" d="M11.5736 6.51591C11.388 6.68884 11.0901 6.51985 11.1433 6.27182L11.4473 4.85581L10.4933 5.30026L10.0163 3.96692L9.53936 5.30026L8.58542 4.85581L8.8893 6.27182C8.94257 6.51985 8.64468 6.68884 8.45911 6.51591L8.2852 6.35383C8.18556 6.26105 8.03125 6.26105 7.9317 6.35383L7.63144 6.63358L6.67749 6.18915L7.15446 7.07803L6.88105 7.3328C6.77103 7.43532 6.77103 7.60963 6.88105 7.71215L8.10841 8.85584H9.53936L9.77783 10.1891H10.2548L10.4933 8.85584H11.9243L13.1516 7.71215C13.2617 7.60963 13.2617 7.43532 13.1516 7.3328L12.8782 7.07803L13.3551 6.18915L12.4012 6.63358L12.101 6.35383C12.0014 6.26105 11.847 6.26105 11.7475 6.35383L11.5736 6.51591Z" fill="#FF3131"/>
</g>
</g>
<defs>
<clipPath id="clip0_22_42">
<rect width="20.2222" height="14" fill="white"/>
</clipPath>
</defs>
</svg>
