<svg width="21" height="14" viewBox="0 0 21 14" fill="none" xmlns="http://www.w3.org/2000/svg">
<g clip-path="url(#clip0_22_85)">
<path d="M18.4774 0.411499H1.55556C0.696446 0.411499 0 1.10794 0 1.96705V12.1893C0 13.0484 0.696446 13.7449 1.55556 13.7449H18.4774C19.3365 13.7449 20.033 13.0484 20.033 12.1893V1.96705C20.033 1.10794 19.3365 0.411499 18.4774 0.411499Z" fill="white"/>
<mask id="mask0_22_85" style="mask-type:alpha" maskUnits="userSpaceOnUse" x="0" y="0" width="21" height="14">
<path d="M18.4774 0.411499H1.55556C0.696446 0.411499 0 1.10794 0 1.96705V12.1893C0 13.0484 0.696446 13.7449 1.55556 13.7449H18.4774C19.3365 13.7449 20.033 13.0484 20.033 12.1893V1.96705C20.033 1.10794 19.3365 0.411499 18.4774 0.411499Z" fill="white"/>
</mask>
<g mask="url(#mask0_22_85)">
<path d="M20.033 0.411499H0V13.7449H20.033V0.411499Z" fill="#0A17A7"/>
<path d="M-0.73999 0.152256H5.37038e-05H0.477031H0.55542L0.620678 0.195689L3.89426 2.37448H4.69983L8.45512 0.187479L8.84486 -0.0394897V0.411516V0.717082C8.84486 0.890593 8.75814 1.0526 8.61363 1.14873L8.47005 0.932904L8.61363 1.14874L5.50605 3.21706V3.84234L8.4104 6.16201C8.71365 6.40418 8.54239 6.893 8.15435 6.893C8.07347 6.893 7.99437 6.86908 7.92701 6.82425M-0.73999 0.152256L7.92701 6.82425L-0.73999 0.152256ZM-0.73999 0.152256L-0.161741 0.614093L3.07963 3.20292V3.82819L-0.143593 5.97346L-0.259205 6.05042V6.1893V6.63374V7.08475L0.130526 6.85777L3.88586 4.67077H4.69143L7.92701 6.82425M-0.73999 0.152256L8.07059 6.60843L7.92701 6.82425" fill="#FF2E3B"/>
<path d="M-0.73999 0.152256H5.37069e-05H0.477031H0.55542L0.620678 0.195689L3.89426 2.37448H4.69983L8.45512 0.187479L8.84487 -0.0394897V0.411516V0.717082C8.84487 0.890593 8.75814 1.0526 8.61363 1.14873L8.47005 0.932904L8.61363 1.14874L5.50605 3.21706V3.84234L8.4104 6.16201C8.71365 6.40418 8.54239 6.893 8.15435 6.893C8.07347 6.893 7.99437 6.86908 7.92701 6.82425M-0.73999 0.152256L7.92701 6.82425M-0.73999 0.152256L-0.161741 0.614093L3.07963 3.20292V3.82819L-0.143593 5.97346L-0.259205 6.05042V6.1893V6.63374V7.08475L0.130526 6.85777L3.88586 4.67077H4.69143L7.92701 6.82425M-0.73999 0.152256L8.07059 6.60843L7.92701 6.82425" stroke="white" stroke-width="0.666667"/>
<path fill-rule="evenodd" clip-rule="evenodd" d="M0 2.63372V4.4115H3.33884V6.55965C3.33884 6.84602 3.57099 7.07816 3.85736 7.07816H4.72822C5.01459 7.07816 5.24674 6.84602 5.24674 6.55965V4.4115H8.54404C8.83042 4.4115 9.06259 4.17935 9.06259 3.89298V3.15224C9.06259 2.86587 8.83042 2.63372 8.54404 2.63372H5.24674V0.411499H3.33884V2.63372H0Z" fill="url(#paint0_linear_22_85)"/>
<path fill-rule="evenodd" clip-rule="evenodd" d="M0 3.07816H3.81581V2.63372V0.411499H4.76977V2.63372V3.07816H8.58558V3.96705H4.76977V4.4115V6.63372H3.81581V4.4115V3.96705H0V3.07816Z" fill="url(#paint1_linear_22_85)"/>
<path fill-rule="evenodd" clip-rule="evenodd" d="M4.29302 11.3003L3.45195 11.7123L3.61258 10.8397L2.93213 10.2216L3.87249 10.0943L4.29302 9.30029L4.71357 10.0943L5.65392 10.2216L4.97348 10.8397L5.1341 11.7123L4.29302 11.3003Z" fill="white"/>
<path fill-rule="evenodd" clip-rule="evenodd" d="M14.3096 11.9671L13.635 12.1512L13.8326 11.5226L13.635 10.894L14.3096 11.0781L14.9841 10.894L14.7866 11.5226L14.9841 12.1512L14.3096 11.9671Z" fill="white"/>
<path fill-rule="evenodd" clip-rule="evenodd" d="M14.3096 3.52257L13.635 3.70667L13.8326 3.07812L13.635 2.44958L14.3096 2.63369L14.9841 2.44958L14.7866 3.07812L14.9841 3.70667L14.3096 3.52257Z" fill="white"/>
<path fill-rule="evenodd" clip-rule="evenodd" d="M17.1711 6.18932L16.4966 6.37342L16.6941 5.74488L16.4966 5.11633L17.1711 5.30043L17.8457 5.11633L17.6482 5.74488L17.8457 6.37342L17.1711 6.18932Z" fill="white"/>
<path fill-rule="evenodd" clip-rule="evenodd" d="M11.4475 7.07823L10.7729 7.26232L10.9706 6.63379L10.7729 6.00525L11.4475 6.18934L12.1221 6.00525L11.9245 6.63379L12.1221 7.26232L11.4475 7.07823Z" fill="white"/>
<path fill-rule="evenodd" clip-rule="evenodd" d="M15.7402 8.18925L15.4028 8.28134L15.5017 7.96704L15.4028 7.65277L15.7402 7.74482L16.0774 7.65277L15.9786 7.96704L16.0774 8.28134L15.7402 8.18925Z" fill="white"/>
</g>
</g>
<defs>
<linearGradient id="paint0_linear_22_85" x1="0" y1="0.411499" x2="0" y2="7.07816" gradientUnits="userSpaceOnUse">
<stop stop-color="white"/>
<stop offset="1" stop-color="#F0F0F0"/>
</linearGradient>
<linearGradient id="paint1_linear_22_85" x1="0" y1="0.411499" x2="0" y2="6.63372" gradientUnits="userSpaceOnUse">
<stop stop-color="#FF2E3B"/>
<stop offset="1" stop-color="#FC0D1B"/>
</linearGradient>
<clipPath id="clip0_22_85">
<rect width="20.2222" height="14" fill="white"/>
</clipPath>
</defs>
</svg>
